<svg width="24" height="24" viewBox="0 0 24 24" fill="none" xmlns="http://www.w3.org/2000/svg">
<path d="M7.19944 11.9999C7.19944 12.6364 6.94659 13.2468 6.4965 13.6969C6.04641 14.147 5.43596 14.3999 4.79944 14.3999C4.16293 14.3999 3.55248 14.147 3.10239 13.6969C2.6523 13.2468 2.39944 12.6364 2.39944 11.9999C2.39944 11.3633 2.6523 10.7529 3.10239 10.3028C3.55248 9.85271 4.16293 9.59985 4.79944 9.59985C5.43596 9.59985 6.04641 9.85271 6.4965 10.3028C6.94659 10.7529 7.19944 11.3633 7.19944 11.9999ZM14.3994 11.9999C14.3994 12.6364 14.1466 13.2468 13.6965 13.6969C13.2464 14.147 12.636 14.3999 11.9994 14.3999C11.3629 14.3999 10.7525 14.147 10.3024 13.6969C9.8523 13.2468 9.59944 12.6364 9.59944 11.9999C9.59944 11.3633 9.8523 10.7529 10.3024 10.3028C10.7525 9.85271 11.3629 9.59985 11.9994 9.59985C12.636 9.59985 13.2464 9.85271 13.6965 10.3028C14.1466 10.7529 14.3994 11.3633 14.3994 11.9999ZM19.1994 14.3999C19.836 14.3999 20.4464 14.147 20.8965 13.6969C21.3466 13.2468 21.5994 12.6364 21.5994 11.9999C21.5994 11.3633 21.3466 10.7529 20.8965 10.3028C20.4464 9.85271 19.836 9.59985 19.1994 9.59985C18.5629 9.59985 17.9525 9.85271 17.5024 10.3028C17.0523 10.7529 16.7994 11.3633 16.7994 11.9999C16.7994 12.6364 17.0523 13.2468 17.5024 13.6969C17.9525 14.147 18.5629 14.3999 19.1994 14.3999Z" fill="#9796A8"/>
</svg>
